<?xml version="1.0" encoding="utf-8"?>
<!-- Generator: Adobe Illustrator 25.0.1, SVG Export Plug-In . SVG Version: 6.00 Build 0)  -->
<svg version="1.1" id="Layer_1" xmlns="http://www.w3.org/2000/svg" xmlns:xlink="http://www.w3.org/1999/xlink" x="0px" y="0px"
	 viewBox="0 0 625.1 106.9" style="enable-background:new 0 0 625.1 106.9;" xml:space="preserve">
<style type="text/css">
	.st0{fill:#242943;}
</style>
<g id="sze">
	<path id="sze_logo__x23_242943" class="st0" d="M56.8,58c0-1,0.1-1.3,1.3-1.4c8.7-0.5,15.8-4.1,21.2-11c3.8-4.8,5.7-10.2,6-16.3
		c0.1-1.3,1.2-1.2,2-1.2c1.2,0,0.9,0.7,0.9,1.4c-0.7,14-10.4,25.8-24,29.1c-1.9,0.5-3.9,0.7-5.9,0.8C56.8,59.7,56.8,59.6,56.8,58z
		 M82.4,29.6c0.1-0.7,0.1-1.3-1-1.3c-0.8,0-1.8-0.2-1.9,1.2c0,2.4-0.5,4.7-1.5,6.9c-3.8,9-10.5,14-20.2,14.6c-1.4,0.1-1.1,1.2-1,1.9
		c0.1,1,0.5,1,1.2,0.9c1.2-0.1,2.3-0.2,3.5-0.4c11.2-2,20-11.7,20.8-23.1C82.3,30.1,82.4,29.8,82.4,29.6z M130.3,32.8
		c1.4,0,2.8,0.5,4.1,1.5l1.7-2.5c-0.8-0.6-1.6-1.1-2.7-1.5c-1-0.3-2-0.5-3.1-0.5c-1.6,0-2.9,0.4-3.9,1.2c-1,0.8-1.6,1.9-1.6,3.3
		c0,1.4,0.4,2.5,1.2,3.2c0.8,0.7,2.1,1.2,3.9,1.6c1.1,0.3,1.9,0.5,2.2,0.8c0.4,0.3,0.6,0.6,0.6,1.1s-0.2,0.8-0.5,1.1
		c-0.4,0.3-0.8,0.4-1.5,0.4c-1.4,0-2.9-0.7-4.6-2.2l-2,2.5c1.9,1.8,4.1,2.7,6.5,2.7c1.7,0,3-0.4,4-1.3c1-0.9,1.5-2,1.5-3.3
		c0-1.4-0.4-2.4-1.2-3.1c-0.8-0.7-1.9-1.2-3.4-1.6c-1.4-0.4-2.4-0.7-2.8-0.9c-0.4-0.3-0.6-0.6-0.6-1.1c0-0.4,0.2-0.8,0.5-1.1
		C129.3,32.9,129.7,32.8,130.3,32.8z M151.2,45.4v-3h-8.1l8-9.9v-2.4h-12.4V33h7.7l-8,10v2.3h12.8V45.4z M154.1,30.1v15.2h11.2v-3
		h-7.8v-3.2h6.8v-2.9h-6.8v-3.1h7.6v-3C165.1,30.1,154.1,30.1,154.1,30.1z M163.9,26.1l-3.4-1.4l-2.8,3.9h3.1L163.9,26.1z
		 M172.3,41.1c-0.9-0.9-1.3-2-1.3-3.4s0.5-2.5,1.4-3.4c0.9-0.8,2-1.3,3.3-1.3c1.6,0,2.9,0.7,4,2l2.1-2.4c-1.7-1.9-3.8-2.9-6.3-2.9
		c-2.2,0-4.1,0.8-5.7,2.3c-1.5,1.5-2.3,3.4-2.3,5.7s0.8,4.1,2.3,5.6s3.5,2.2,5.8,2.2s4.4-1,6.1-2.9l-2.2-2.2c-1.1,1.3-2.4,2-4.1,2
		C174.2,42.4,173.1,41.9,172.3,41.1z M193.8,36.5h-6.1v-6.4h-3.4v15.2h3.4v-6h6.1v6h3.4V30.1h-3.4V36.5z M200.9,30.1v15.2h11.2v-3
		h-7.8v-3.2h6.8v-2.9h-6.8v-3.1h7.6v-3C211.9,30.1,200.9,30.1,200.9,30.1z M225.9,39.9l-7.5-9.8h-3.2v15.2h3.4v-9.5l7.3,9.5h3.4
		V30.1h-3.4V39.9z M239.6,39.3l5.3-9.2h-3.7l-3.3,5.7l-3.3-5.7h-3.7l5.3,9.2v6h3.4V39.3z M246.5,45.4h3.4V30.1h-3.4V45.4z
		 M125.4,48.8V64h11.2v-3h-7.8v-3.2h6.8V55h-6.8v-3.1h7.6v-3h-11V48.8z M149.8,60.4c-0.8,0.5-1.8,0.7-2.9,0.7c-1.2,0-2.2-0.4-3-1.3
		c-0.9-0.9-1.3-2-1.3-3.5s0.4-2.6,1.3-3.5c0.9-0.9,2-1.3,3.3-1.3c0.7,0,1.3,0.1,1.9,0.3c0.6,0.2,1.2,0.6,1.9,1.2l1.8-2.5
		c-1.6-1.4-3.5-2.2-5.7-2.2s-4.1,0.8-5.6,2.3s-2.3,3.4-2.3,5.7s0.8,4.1,2.3,5.6s3.4,2.2,5.6,2.2c2.7,0,4.8-0.8,6.3-2.5v-5.4H150v4.2
		H149.8z M162.8,58l5.3-9.2h-3.7l-3.3,5.7l-3.3-5.7h-3.7l5.3,9.2v6h3.4V58z M169.9,48.8V64h11.2v-3h-7.8v-3.2h6.8V55h-6.8v-3.1h7.6
		v-3h-11V48.8z M195.2,51.7v-2.9h-12v2.9h4.3V64h3.4V51.7H195.2z M197.9,48.8V64h11.2v-3h-7.8v-3.2h6.8V55h-6.8v-3.1h7.6v-3h-11
		V48.8z M226,64h3.4V48.8h-4.6l-3.9,8.4l-3.9-8.4h-4.6V64h3.4v-9.6l4.1,8.3h2l4.1-8.3V64z M125,73.7V70h-1.1v3.7
		c0,1,0.3,1.7,0.8,2.2s1.2,0.8,2,0.8s1.5-0.3,2-0.8s0.8-1.2,0.8-2.2V70h-1.1v3.7c0,0.6-0.2,1.1-0.5,1.4c-0.3,0.4-0.7,0.5-1.2,0.5
		s-0.9-0.2-1.2-0.5C125.2,74.8,125,74.3,125,73.7z M136.2,75l-3.8-4.9h-1.1v6.6h1.1v-4.8l3.7,4.8h1.2V70h-1.1L136.2,75L136.2,75z
		 M139.2,76.7h1.1V70h-1.1V76.7z M147.8,70h-1.2l-2,4.9l-2-4.9h-1.2l2.7,6.6h1.2L147.8,70z M148.7,70v6.6h4.8v-1.1h-3.6v-1.8h3.2v-1
		h-3.2v-1.8h3.5V70H148.7z M159.6,70.6c-0.4-0.3-1.2-0.5-2.2-0.5h-2.5v6.6h1.1v-2.2h1.5l1.6,2.2h1.4l-1.7-2.4c1-0.3,1.4-1,1.4-2.1
		C160.2,71.4,160,70.9,159.6,70.6z M157.4,73.4H156V71h1.4c0.6,0,1,0.1,1.2,0.2c0.2,0.2,0.4,0.5,0.4,0.9s-0.1,0.7-0.3,0.9
		C158.5,73.3,158.1,73.4,157.4,73.4z M164.8,71.1c0.3,0.1,0.6,0.3,0.8,0.4l0.6-0.8c-0.3-0.3-0.7-0.4-1.1-0.6
		c-0.4-0.1-0.8-0.2-1.3-0.2c-0.7,0-1.2,0.2-1.7,0.5c-0.4,0.3-0.7,0.8-0.7,1.4s0.2,1.1,0.6,1.4c0.2,0.2,0.4,0.3,0.7,0.4
		s0.6,0.2,1.1,0.3c0.5,0.1,0.8,0.2,1,0.4c0.2,0.1,0.3,0.3,0.3,0.6c0,0.3-0.1,0.5-0.3,0.6c-0.2,0.2-0.5,0.2-0.9,0.2
		c-0.7,0-1.4-0.3-2.1-0.9l-0.7,0.8c0.8,0.7,1.7,1.1,2.8,1.1c0.7,0,1.3-0.2,1.7-0.5c0.4-0.4,0.7-0.8,0.7-1.4s-0.2-1-0.5-1.3
		s-0.9-0.5-1.5-0.7c-0.7-0.2-1.1-0.3-1.3-0.5s-0.3-0.3-0.3-0.6s0.1-0.5,0.3-0.6s0.5-0.2,0.8-0.2C164.2,70.9,164.5,71,164.8,71.1z
		 M167.8,76.7h1.1V70h-1.1V76.7z M175.2,71.1v-1h-5.1v1h2v5.6h1.1v-5.6H175.2z M179.1,74.1l2.5-4h-1.2l-1.8,3l-1.8-3h-1.2l2.5,4v2.6
		h1.1v-2.6H179.1z M191.5,73.3c0-1-0.3-1.8-1-2.4c-0.7-0.7-1.5-1-2.5-1s-1.8,0.3-2.5,1s-1,1.5-1,2.4c0,1,0.3,1.8,1,2.4
		c0.7,0.7,1.5,1,2.5,1s1.8-0.3,2.5-1C191.2,75.1,191.5,74.3,191.5,73.3z M190.4,73.3c0,0.7-0.2,1.2-0.7,1.7s-1,0.7-1.7,0.7
		s-1.2-0.2-1.7-0.7s-0.7-1-0.7-1.7s0.2-1.2,0.7-1.7s1-0.7,1.7-0.7s1.2,0.2,1.7,0.7C190.1,72.1,190.4,72.6,190.4,73.3z M197.3,71.1
		v-1h-4.4v6.6h1.1V74h2.9v-1H194v-1.8L197.3,71.1L197.3,71.1z M205.8,75.3c-0.4,0.3-0.9,0.4-1.6,0.4c-0.6,0-1.2-0.2-1.6-0.6
		c-0.4-0.4-0.7-1-0.7-1.7s0.2-1.3,0.7-1.7c0.5-0.4,1-0.6,1.7-0.6c0.3,0,0.7,0,0.9,0.1c0.3,0.1,0.5,0.2,0.8,0.5l0.6-0.9
		c-0.6-0.6-1.4-0.8-2.4-0.8s-1.8,0.3-2.4,1c-0.7,0.7-1,1.5-1,2.5s0.3,1.8,1,2.4s1.5,1,2.5,1c1.2,0,2.1-0.3,2.7-1v-2.3h-1.1
		L205.8,75.3L205.8,75.3z M210.9,74.1l2.5-4h-1.2l-1.8,3l-1.8-3h-1.2l2.5,4v2.6h1.1v-2.6H210.9z M220.7,73.3c0-1-0.3-1.8-1-2.4
		c-0.7-0.7-1.5-1-2.5-1s-1.8,0.3-2.5,1s-1,1.5-1,2.4c0,1,0.3,1.8,1,2.4c0.7,0.7,1.5,1,2.5,1s1.8-0.3,2.5-1
		C220.4,75.1,220.7,74.3,220.7,73.3z M219.6,73.3c0,0.7-0.2,1.2-0.7,1.7s-1,0.7-1.7,0.7s-1.2-0.2-1.7-0.7s-0.7-1-0.7-1.7
		s0.2-1.2,0.7-1.7s1-0.7,1.7-0.7s1.2,0.2,1.7,0.7C219.4,72.1,219.6,72.6,219.6,73.3z M226.8,70.6c-0.4-0.3-1.2-0.5-2.2-0.5h-2.5v6.6
		h1.1v-2.2h1.5l1.6,2.2h1.4l-1.7-2.4c1-0.3,1.4-1,1.4-2.1C227.4,71.4,227.2,70.9,226.8,70.6z M224.6,73.4h-1.4V71h1.4
		c0.6,0,1,0.1,1.2,0.2c0.2,0.2,0.4,0.5,0.4,0.9s-0.1,0.7-0.3,0.9C225.7,73.3,225.3,73.4,224.6,73.4z M105.2,30.7v-2.5
		c0-0.2-0.2-0.3-0.3-0.3H93.6c-0.2,0-0.3,0.2-0.3,0.3v2.5c0,0.2,0.2,0.3,0.3,0.3h11.2C105.1,31,105.2,30.9,105.2,30.7z M105.2,36.4
		v-2.5c0-0.2-0.2-0.3-0.3-0.3H93.6c-0.2,0-0.3,0.2-0.3,0.3v2.5c0,0.2,0.2,0.3,0.3,0.3h11.2C105.1,36.7,105.2,36.6,105.2,36.4z
		 M105.2,42.1v-2.5c0-0.2-0.2-0.3-0.3-0.3H93.6c-0.2,0-0.3,0.2-0.3,0.3v2.5c0,0.2,0.2,0.3,0.3,0.3h11.2
		C105.1,42.4,105.2,42.3,105.2,42.1z M105.2,47.8v-2.5c0-0.2-0.2-0.3-0.3-0.3H93.6c-0.2,0-0.3,0.2-0.3,0.3v2.5
		c0,0.2,0.2,0.3,0.3,0.3h11.2C105.1,48.1,105.2,48,105.2,47.8z M105.2,53.5V51c0-0.2-0.2-0.3-0.3-0.3H93.6c-0.2,0-0.3,0.2-0.3,0.3
		v2.5c0,0.2,0.2,0.3,0.3,0.3h11.2C105.1,53.8,105.2,53.7,105.2,53.5z M105.2,59.2v-2.5c0-0.2-0.2-0.3-0.3-0.3H93.6
		c-0.2,0-0.3,0.2-0.3,0.3v2.5c0,0.2,0.2,0.3,0.3,0.3h11.2C105.1,59.5,105.2,59.4,105.2,59.2z M105.2,64.9v-2.5
		c0-0.2-0.2-0.3-0.3-0.3H93.6c-0.2,0-0.3,0.2-0.3,0.3v2.5c0,0.2,0.2,0.3,0.3,0.3h11.2C105.1,65.3,105.2,65.1,105.2,64.9z
		 M105.2,70.6v-2.5c0-0.2-0.2-0.3-0.3-0.3H93.6c-0.2,0-0.3,0.2-0.3,0.3v2.5c0,0.2,0.2,0.3,0.3,0.3h11.2
		C105.1,71,105.2,70.8,105.2,70.6z M105.2,76.3v-2.5c0-0.2-0.2-0.3-0.3-0.3H93.6c-0.2,0-0.3,0.2-0.3,0.3v2.5c0,0.2,0.2,0.3,0.3,0.3
		h11.2C105.1,76.7,105.2,76.5,105.2,76.3z M87.7,64.9v-2.5c0-0.2-0.2-0.3-0.3-0.3H44.9c-0.2,0-0.3,0.2-0.3,0.3v2.5
		c0,0.2,0.2,0.3,0.3,0.3h42.5C87.5,65.3,87.7,65.1,87.7,64.9z M87.7,76.3v-2.5c0-0.2-0.2-0.3-0.3-0.3H44.9c-0.2,0-0.3,0.2-0.3,0.3
		v2.5c0,0.2,0.2,0.3,0.3,0.3h42.5C87.5,76.7,87.7,76.5,87.7,76.3z M218.9,68.1l-0.8-0.4l-0.8,1.6h0.8L218.9,68.1z M217.4,68
		l-0.8-0.3l-0.8,1.6h0.8L217.4,68z M250.3,76.3v-2.5c0-0.2-0.2-0.3-0.3-0.3h-15.2c-0.2,0-0.3,0.2-0.3,0.3v2.5c0,0.2,0.2,0.3,0.3,0.3
		H250C250.1,76.7,250.3,76.5,250.3,76.3z"/>
	<path id="sze_vilagos__x23_50ADC9" class="st0" d="M87.7,70.6v-2.5c0-0.2-0.2-0.3-0.3-0.3H57.9c-0.2,0-0.3,0.2-0.3,0.3v2.5
		c0,0.2,0.2,0.3,0.3,0.3h29.4C87.5,71,87.7,70.8,87.7,70.6z"/>
</g>
<g id="tanszek">
	<circle id="tsz_vilagos" class="st0" cx="392.9" cy="41.5" r="5"/>
	<path class="st0" d="M436.9,30.4h3.1v14.1h-3.1V30.4z M452.9,30.4h3.1v14.1h-3.1l-6.7-8.8v8.8h-3.1V30.4h2.9l6.9,9.1V30.4
		L452.9,30.4z M468.7,30.4v2.8h-6.5v3h6.2V39h-6.2v5.5h-3.1V30.4C459.1,30.4,468.7,30.4,468.7,30.4z M482.7,42.5
		c-1.4,1.4-3.2,2.1-5.3,2.1s-3.8-0.7-5.3-2.1c-1.4-1.4-2.1-3.1-2.1-5.2s0.7-3.8,2.1-5.2c1.4-1.4,3.2-2.1,5.3-2.1s3.8,0.7,5.3,2.1
		c1.5,1.4,2.1,3.1,2.1,5.2S484.2,41.1,482.7,42.5z M481.7,37.3c0-1.3-0.4-2.3-1.2-3.2c-0.8-0.9-1.8-1.3-3-1.3c-1.2,0-2.2,0.4-3,1.3
		c-0.8,0.9-1.2,2-1.2,3.2s0.4,2.3,1.2,3.2c0.8,0.9,1.8,1.3,3,1.3c1.2,0,2.2-0.4,3-1.3C481.3,39.6,481.7,38.6,481.7,37.3z M498.5,35
		c0,2.3-0.9,3.7-2.7,4.4l3.6,5h-3.9l-3.1-4.5h-2.2v4.5h-3.1V30.3h5.3c2.2,0,3.8,0.4,4.7,1.1C498,32.2,498.5,33.4,498.5,35z
		 M494.7,36.7c0.4-0.3,0.6-0.9,0.6-1.7s-0.2-1.3-0.6-1.6c-0.4-0.3-1.1-0.4-2.1-0.4h-2.4v4.2h2.3C493.6,37.2,494.3,37.1,494.7,36.7z
		 M513.9,35.6l-3.8,7.7h-1.9l-3.8-7.7v8.9h-3.1V30.4h4.3l3.6,7.7l3.7-7.7h4.2v14.1H514L513.9,35.6L513.9,35.6z M530,44.5l-1.3-3
		h-5.9l-1.3,3h-3.3l6.1-14.1h3l6.1,14.1H530z M525.8,34.5l-1.8,4.1h3.5L525.8,34.5z M540.5,33.1v11.4h-3.1V33.1h-4v-2.7h11.1v2.7
		H540.5z M546.3,30.4h3.1v14.1h-3.1V30.4z M552.4,30.4h3.1v5.8l5.3-5.8h3.9l-5.6,6.2c0.5,0.7,1.4,1.9,2.7,3.8
		c1.3,1.8,2.3,3.2,2.9,4.1H561l-4.1-5.6l-1.4,1.6v4h-3.1L552.4,30.4L552.4,30.4z M576.3,44.5l-1.3-3h-5.9l-1.3,3h-3.3l6.1-14.1h3
		l6.1,14.1H576.3z M572.1,34.5l-1.8,4.1h3.5L572.1,34.5z M442.8,52.7v11.4h-3.1V52.7h-4V50h11.1v2.7H442.8z M458.7,64.1l-1.3-3h-5.9
		l-1.3,3h-3.4l6.1-14.1h3l6.1,14.1H458.7z M454.4,54.2l-1.8,4.1h3.5L454.4,54.2z M473.1,50h3.1v14.1h-3.1l-6.7-8.8v8.8h-3.1V50h2.9
		l6.9,9.1L473.1,50L473.1,50z M482.5,52.8c-0.3,0.2-0.5,0.6-0.5,1s0.2,0.7,0.6,1c0.4,0.3,1.2,0.5,2.6,0.9c1.4,0.4,2.4,0.8,3.1,1.5
		c0.7,0.7,1.1,1.6,1.1,2.9s-0.5,2.3-1.4,3.1s-2.2,1.2-3.7,1.2c-2.2,0-4.2-0.8-6-2.5l1.9-2.3c1.5,1.3,2.9,2,4.2,2
		c0.6,0,1-0.1,1.4-0.4c0.3-0.2,0.5-0.6,0.5-1s-0.2-0.8-0.5-1c-0.3-0.2-1-0.5-2.1-0.8c-1.6-0.4-2.8-0.9-3.6-1.5
		c-0.8-0.6-1.1-1.6-1.1-2.9s0.5-2.4,1.4-3.1c1-0.7,2.2-1.1,3.6-1.1c0.9,0,1.9,0.2,2.8,0.5c0.9,0.3,1.8,0.8,2.5,1.4l-1.6,2.3
		c-1.2-0.9-2.5-1.4-3.8-1.4C483.2,52.4,482.8,52.5,482.5,52.8z M490.8,64.1v-2.2l7.4-9.2h-7.1V50h11.4v2.2l-7.4,9.2h7.5v2.7H490.8z
		 M515,50v2.8h-7v2.9h6.3v2.7H508v2.9h7.2v2.8h-10.4V50L515,50L515,50z M511.1,48.5h-2.9l2.6-3.6l3.1,1.3L511.1,48.5z M517.5,50h3.1
		v5.8l5.3-5.8h3.9l-5.6,6.2c0.5,0.7,1.4,1.9,2.7,3.8c1.3,1.8,2.3,3.2,2.9,4.1h-3.7l-4.1-5.6l-1.4,1.6v4h-3.1V50L517.5,50z M439,71.3
		c0.4,0.4,0.6,0.9,0.6,1.6s-0.2,1.2-0.6,1.6s-1,0.6-1.9,0.6h-1.4v-4.4h1.5C438,70.7,438.6,70.9,439,71.3z M438.9,72.9
		c0-1-0.6-1.5-1.7-1.5h-0.7v3h0.8c0.5,0,0.9-0.1,1.2-0.4C438.8,73.8,438.9,73.4,438.9,72.9z M443.7,70.7v0.7h-2.3v1.2h2.1v0.7h-2.1
		v1.2h2.4v0.7h-3.1v-4.5H443.7z M447.6,71.1c0.3,0.3,0.5,0.6,0.5,1.2c0,0.5-0.2,0.9-0.5,1.2c-0.3,0.2-0.8,0.4-1.4,0.4h-0.8v1.3h-0.7
		v-4.5h1.5C446.8,70.7,447.3,70.9,447.6,71.1z M447.1,72.9c0.1-0.2,0.2-0.4,0.2-0.7s-0.1-0.5-0.3-0.6c-0.2-0.1-0.5-0.2-0.9-0.2h-0.7
		v1.7h0.9C446.7,73.1,446.9,73.1,447.1,72.9z M449.5,74.1l-0.4,1h-0.8l1.9-4.3h0.8l1.9,4.3h-0.8l-0.4-1H449.5z M451.4,73.4l-0.8-1.8
		l-0.8,1.8H451.4z M457,72.1c0,0.7-0.3,1.2-0.9,1.4l1.1,1.6h-0.9l-1-1.5h-1v1.5h-0.7v-4.4h1.6c0.7,0,1.1,0.1,1.4,0.3
		C456.9,71.3,457,71.7,457,72.1z M456,72.8c0.1-0.1,0.2-0.3,0.2-0.6s-0.1-0.5-0.2-0.6c-0.2-0.1-0.4-0.2-0.8-0.2h-0.9V73h0.9
		C455.6,73,455.9,72.9,456,72.8z M459.7,71.4v3.7H459v-3.7h-1.3v-0.7h3.4v0.7H459.7z M462.6,75.1h-0.8v-4.4h1.1l1.3,2.7l1.3-2.7h1.1
		V75h-0.7v-3.3l-1.5,3H464l-1.5-3L462.6,75.1L462.6,75.1z M471,70.7v0.7h-2.3v1.2h2.1v0.7h-2.1v1.2h2.4v0.7H468v-4.5H471z
		 M475.3,70.7h0.7V75h-0.8l-2.5-3.2V75H472v-4.3h0.7l2.5,3.2v-3.2H475.3z M478.8,71.4v3.7h-0.7v-3.7h-1.3v-0.7h3.4v0.7H478.8z
		 M486.3,74.5c-0.4,0.4-1,0.6-1.6,0.6s-1.2-0.2-1.6-0.6c-0.4-0.4-0.7-1-0.7-1.6s0.2-1.2,0.7-1.6s1-0.6,1.6-0.6s1.2,0.2,1.6,0.6
		c0.4,0.4,0.7,1,0.7,1.6C486.9,73.5,486.7,74.1,486.3,74.5z M485.8,71.8c-0.3-0.3-0.7-0.5-1.1-0.5c-0.4,0-0.8,0.2-1.1,0.5
		c-0.3,0.3-0.4,0.7-0.4,1.1c0,0.4,0.1,0.8,0.4,1.1c0.3,0.3,0.7,0.5,1.1,0.5s0.8-0.2,1.1-0.5c0.3-0.3,0.4-0.7,0.4-1.1
		C486.2,72.4,486,72.1,485.8,71.8z M488.6,71.4v1.2h1.9v0.7h-1.9v1.8h-0.7v-4.4h2.9v0.7H488.6z M495.3,74.4c0.3,0,0.5,0,0.7-0.1
		c0.2-0.1,0.4-0.2,0.6-0.4l0.5,0.5c-0.5,0.5-1,0.8-1.7,0.8c-0.7,0-1.2-0.2-1.6-0.6c-0.4-0.4-0.6-1-0.6-1.6s0.2-1.2,0.7-1.6
		c0.4-0.4,1-0.6,1.7-0.6c0.7,0,1.2,0.2,1.7,0.7l-0.5,0.5c-0.2-0.2-0.4-0.3-0.6-0.4c-0.2-0.1-0.4-0.1-0.7-0.1c-0.4,0-0.8,0.1-1.1,0.4
		c-0.3,0.3-0.4,0.6-0.4,1.1s0.1,0.8,0.4,1.1C494.6,74.3,494.9,74.4,495.3,74.4z M501.5,74.5c-0.4,0.4-1,0.6-1.6,0.6
		s-1.2-0.2-1.6-0.6c-0.4-0.4-0.7-1-0.7-1.6s0.2-1.2,0.7-1.6s1-0.6,1.6-0.6s1.2,0.2,1.6,0.6c0.4,0.4,0.7,1,0.7,1.6
		S502,74.1,501.5,74.5z M501,71.8c-0.3-0.3-0.7-0.5-1.1-0.5s-0.8,0.2-1.1,0.5c-0.3,0.3-0.4,0.7-0.4,1.1c0,0.4,0.1,0.8,0.4,1.1
		s0.7,0.5,1.1,0.5c0.4,0,0.8-0.2,1.1-0.5c0.3-0.3,0.4-0.7,0.4-1.1C501.5,72.4,501.3,72.1,501,71.8z M503.9,75.1h-0.7v-4.4h1.1
		l1.3,2.7l1.3-2.7h1.1V75h-0.7v-3.3l-1.5,3h-0.4l-1.5-3L503.9,75.1L503.9,75.1z M512.2,71.1c0.3,0.3,0.5,0.6,0.5,1.2
		c0,0.5-0.2,0.9-0.5,1.2c-0.3,0.2-0.8,0.4-1.4,0.4H510v1.3h-0.7v-4.5h1.5C511.4,70.7,511.9,70.9,512.2,71.1z M511.7,72.9
		c0.1-0.2,0.2-0.4,0.2-0.7s-0.1-0.5-0.3-0.6c-0.2-0.1-0.5-0.2-0.9-0.2H510v1.7h0.9C511.2,73.1,511.5,73.1,511.7,72.9z M514.5,74.1
		c0.2,0.2,0.5,0.3,0.8,0.3s0.6-0.1,0.8-0.3c0.2-0.2,0.3-0.5,0.3-0.9v-2.5h0.7v2.4c0,0.6-0.2,1.1-0.5,1.4c-0.3,0.3-0.8,0.5-1.3,0.5
		s-1-0.2-1.3-0.5s-0.5-0.8-0.5-1.4v-2.4h0.7v2.4C514.2,73.5,514.3,73.9,514.5,74.1z M519.9,71.4v3.7h-0.7v-3.7h-1.3v-0.7h3.4v0.7
		H519.9z M525.1,70.7v0.7h-2.3v1.2h2.1v0.7h-2.1v1.2h2.4v0.7h-3.1v-4.5H525.1z M529.6,72.1c0,0.7-0.3,1.2-0.9,1.4l1.1,1.6h-1l-1-1.5
		h-1v1.5h-0.7v-4.4h1.6c0.7,0,1.1,0.1,1.4,0.3S529.6,71.7,529.6,72.1z M528.6,72.8c0.1-0.1,0.2-0.3,0.2-0.6s-0.1-0.5-0.2-0.6
		c-0.1-0.1-0.4-0.2-0.8-0.2h-1V73h0.9C528.1,73,528.4,72.9,528.6,72.8z M533.6,71.3c-0.2,0-0.4,0-0.5,0.1c-0.1,0.1-0.2,0.2-0.2,0.4
		s0.1,0.3,0.2,0.4c0.1,0.1,0.4,0.2,0.9,0.3c0.4,0.1,0.8,0.3,1,0.5s0.3,0.5,0.3,0.9s-0.1,0.7-0.4,0.9s-0.7,0.4-1.1,0.4
		c-0.7,0-1.3-0.2-1.8-0.7l0.5-0.6c0.4,0.4,0.9,0.6,1.4,0.6c0.2,0,0.4-0.1,0.6-0.2s0.2-0.2,0.2-0.4s-0.1-0.3-0.2-0.4
		c-0.1-0.1-0.4-0.2-0.7-0.3s-0.6-0.1-0.7-0.2c-0.2-0.1-0.3-0.1-0.4-0.3c-0.3-0.2-0.4-0.5-0.4-0.9s0.1-0.7,0.4-0.9s0.7-0.3,1.1-0.3
		c0.3,0,0.6,0,0.8,0.1c0.3,0.1,0.5,0.2,0.7,0.4l-0.5,0.6c-0.1-0.1-0.3-0.2-0.5-0.3C534.1,71.3,533.8,71.3,533.6,71.3z M538.2,74.4
		c0.3,0,0.5,0,0.7-0.1c0.2-0.1,0.4-0.2,0.6-0.4l0.5,0.5c-0.5,0.5-1,0.8-1.7,0.8s-1.2-0.2-1.6-0.6c-0.4-0.4-0.6-1-0.6-1.6
		s0.2-1.2,0.7-1.6c0.4-0.4,1-0.6,1.7-0.6c0.7,0,1.2,0.2,1.7,0.7l-0.5,0.5c-0.2-0.2-0.4-0.3-0.6-0.4c-0.2-0.1-0.4-0.1-0.7-0.1
		c-0.4,0-0.8,0.1-1.1,0.4c-0.3,0.3-0.4,0.6-0.4,1.1s0.1,0.8,0.4,1.1C537.5,74.3,537.8,74.4,538.2,74.4z M540.8,70.7h0.7V75h-0.7
		V70.7z M545.8,70.7v0.7h-2.3v1.2h2.1v0.7h-2.1v1.2h2.4v0.7h-3.1v-4.5H545.8z M550.1,70.7h0.7V75H550l-2.5-3.2V75h-0.7v-4.3h0.7
		l2.5,3.2L550.1,70.7L550.1,70.7z M554,74.4c0.3,0,0.5,0,0.7-0.1c0.2-0.1,0.4-0.2,0.6-0.4l0.5,0.5c-0.5,0.5-1,0.8-1.7,0.8
		c-0.7,0-1.2-0.2-1.6-0.6c-0.4-0.4-0.6-1-0.6-1.6s0.2-1.2,0.7-1.6c0.4-0.4,1-0.6,1.7-0.6s1.2,0.2,1.7,0.7l-0.5,0.5
		c-0.2-0.2-0.4-0.3-0.6-0.4c-0.2-0.1-0.4-0.1-0.7-0.1c-0.4,0-0.8,0.1-1.1,0.4c-0.3,0.3-0.4,0.6-0.4,1.1s0.1,0.8,0.4,1.1
		C553.2,74.3,553.6,74.4,554,74.4z M559.6,70.7v0.7h-2.3v1.2h2.1v0.7h-2.1v1.2h2.4v0.7h-3.1v-4.5H559.6z M386.4,66.5
		c1.1,3.6,4.2,4.3,7.5,4.3c5.1,0.1,9.9-1.2,14.2-3.8c3.5-2.1,6-4.9,7.3-8.3c3.5-8.8,1-17.5-6.7-23.3c-5.2-3.9-11-5.5-17.4-4.7
		c-5.9,0.7-11.3,3.2-15.9,7.6c-1.1,1-2,2.2-2.7,3.3c-5.3,8-5.9,16-1.7,23.8c2.9,5.2,7.4,9.1,13.4,11.5c2.9,1.2,6,1.7,9.4,1.7
		c1.4,0,2.8-0.1,4.2-0.3c5.2-0.7,10-2.5,14.3-5.3c0.2-0.1,0.6-0.3,0.7-0.8c0-0.2,0-0.6-0.3-0.9v-0.1c-0.1-0.2-0.4-0.6-0.9-0.6
		c-0.3-0.1-0.7,0-1,0.3c-0.4,0.3-0.8,0.6-1.3,0.8c-4.4,2.5-9.6,3.9-14.7,4c-5.5,0-7.9-0.6-12.1-3c-7.6-4.4-11.8-12.4-10.4-20.9
		c1.2-7.1,5.4-12.4,12-15.9c4-2.1,8.2-2.8,12.6-2.2c3.6,0.5,7,1.9,10.2,4.3c5.6,4.2,7.9,9.4,6.8,16c-1.4,8.8-8.5,12.3-14.3,13.6
		c0-0.2,0-1.6,0-1.8s0-0.8,0-0.9c0-1.2,0-1.4,0-2c0-1.8,0-1.9,0-2.7c0-0.4,0-0.9,0-1.8c0-0.9,0-1.8,0-2.8c0-1.3,0-3.1,0-4.5
		c0-2.5-0.3-2.5-2.1-2.5h-0.2c-0.1,0-0.1,0-0.2,0c-0.9,0-4-0.1-8,0c-2.4,0.1-3.1,0.1-3.1,2.1c0,0,0,1.6,0,1.7c0,4.3,0,4.3,0,6.5
		c0,0.5,0,1.4,0,1.8C385.8,63.3,385.6,63.8,386.4,66.5z M579.7,74.7v-2.2c0-0.2-0.2-0.3-0.3-0.3h-14c-0.2,0-0.3,0.2-0.3,0.3v2.2
		c0,0.2,0.2,0.3,0.3,0.3h14C579.6,75,579.7,74.9,579.7,74.7z"/>
</g>
</svg>
